# xmcd
#
# Track frame offsets:
#	150
#	13854
#	29557
#	45079
#	62028
#	73877
#	88925
#	105848
#	119966
#	135204
#	150225
#	165007
#	180549
#	195792
#
# Disc length: 2808 seconds
#
# Revision: 1
# Processed by: cddbd v1.4PL0 Copyright (c) Steve Scherf et al.
# Submitted via: EasyCDDAExtractor 6.0.0.1
#
DISCID=a50af60e
DTITLE=The Traveling Wilburys - Volume 4
DYEAR=1900
DGENRE=Blues
TTITLE0=Wilbury Twist
TTITLE1=New Blue Moon
TTITLE2=Seven Deadly Sins
TTITLE3=Cool Dry Place
TTITLE4=Runaway
TTITLE5=Maxine
TTITLE6=Inside Out
TTITLE7=Last Night
TTITLE8=You Took My Breath Away
TTITLE9=Poor House
TTITLE10=If You Belonged To Me
TTITLE11=She's My Baby
TTITLE12=The Devil's Been Busy
TTITLE13=Like A Ship
EXTD=
EXTT0=
EXTT1=
EXTT2=
EXTT3=
EXTT4=
EXTT5=
EXTT6=
EXTT7=
EXTT8=
EXTT9=
EXTT10=
EXTT11=
EXTT12=
EXTT13=
PLAYORDER=
